<svg xmlns="http://www.w3.org/2000/svg" viewBox="0 0 24 24" fill="currentColor"><path d="M7.25361 18.4944L7.97834 18.917C9.18909 19.623 10.5651 20 12.001 20C16.4193 20 20.001 16.4183 20.001 12C20.001 7.58172 16.4193 4 12.001 4C7.5827 4 4.00098 7.58172 4.00098 12C4.00098 13.4363 4.37821 14.8128 5.08466 16.0238L5.50704 16.7478L4.85355 19.1494L7.25361 18.4944ZM2.00516 22L3.35712 17.0315C2.49494 15.5536 2.00098 13.8345 2.00098 12C2.00098 6.47715 6.47813 2 12.001 2C17.5238 2 22.001 6.47715 22.001 12C22.001 17.5228 17.5238 22 12.001 22C10.1671 22 8.44851 21.5064 6.97086 20.6447L2.00516 22ZM8.50098 7.5C8.50098 7.22386 8.72484 7 9.00098 7H9.50098C9.77712 7 10.001 7.22386 10.001 7.5V11H13.501C13.7771 11 14.001 11.2239 14.001 11.5V12C14.001 12.2761 13.7771 12.5 13.501 12.5H10.001V16C10.001 16.2761 9.77712 16.5 9.50098 16.5H9.00098C8.72484 16.5 8.50098 16.2761 8.50098 16V12.5H7.00098C6.72484 12.5 6.50098 12.2761 6.50098 12V11.5C6.50098 11.2239 6.72484 11 7.00098 11H8.50098V7.5Z"></path></svg>