<svg xmlns="http://www.w3.org/2000/svg" viewBox="0 0 24 24" fill="none" stroke="currentColor" stroke-width="var(--icon-stroke-width, 1px)" stroke-linecap="round" stroke-linejoin="round"><path d="M14 18V6a2 2 0 0 0-2-2H4a2 2 0 0 0-2 2v11a1 1 0 0 0 1 1h2"></path><path d="M15 18H9"></path><path d="M19 18h2a1 1 0 0 0 1-1v-3.28a1 1 0 0 0-.684-.948l-1.923-.641a1 1 0 0 1-.578-.502l-1.539-3.076A1 1 0 0 0 16.382 8H14"></path><circle cx="8" cy="18" r="2"></circle><circle cx="18" cy="18" r="2"></circle></svg>