<?xml version="1.0" encoding="UTF-8"?>
<svg xmlns="http://www.w3.org/2000/svg" viewBox="0 0 20 20" fill="none" stroke="currentColor">
  <path fill="none" stroke-linecap="round" stroke-linejoin="round" d="M10,9.45v5M12.5,11.95h-5"/>
  <path fill="none" stroke-linecap="round" stroke-linejoin="round" d="M4.39,6.87h11.21c.55,0,1,.45,1,1v7.01c0,.57-.22,1.11-.62,1.51-.4.4-.94.63-1.51.63H5.52c-.57,0-1.11-.23-1.51-.63-.4-.4-.62-.95-.62-1.51v-7.02c0-.55.45-1,1-1ZM8.82,2.97h2.33c.62,0,1.21.25,1.65.69.44.44.68,1.04.68,1.66v1.56h-7v-1.56c0-.62.25-1.22.68-1.66.44-.44,1.03-.69,1.65-.69"/>
</svg>
