<?xml version="1.0" encoding="UTF-8"?>
<svg id="Layer_1" xmlns="http://www.w3.org/2000/svg" version="1.1" viewBox="0 0 512 512">
  <!-- Generator: Adobe Illustrator 30.1.0, SVG Export Plug-In . SVG Version: 2.1.1 Build 136)  -->
  <defs>
    <style>
      .st0 {
        fill: none;
        stroke: currentColor;
        stroke-miterlimit: 10;
        stroke-width: 18px;
      }
    </style>
  </defs>
  <path class="st0" d="M469.45,225.59c0-95.59-95.83-173.36-213.63-173.36S42.19,130,42.19,225.59c0,85.7,76,157.47,178.66,171.04,6.96,1.5,16.43,4.59,18.82,10.54,2.15,5.4,1.41,13.86.69,19.32,0,0-2.51,15.07-3.05,18.29-.93,5.4-4.29,21.12,18.5,11.52,22.8-9.61,123.03-72.44,167.85-124.03h0c30.96-33.95,45.79-68.41,45.79-106.66Z"/>
  <g style="fill: currentColor;">
    <path d="M398.38,280.78c2.25,0,4.08-1.83,4.08-4.08v-15.15c0-2.24-1.84-4.08-4.08-4.08h-40.79v-15.73h40.79c2.25,0,4.08-1.83,4.08-4.08v-15.15c0-2.24-1.84-4.08-4.08-4.08h-40.79v-15.73h40.79c2.25,0,4.08-1.83,4.08-4.08v-15.15c0-2.24-1.84-4.08-4.08-4.08h-60.02c-2.25,0-4.08,1.83-4.08,4.08v.09h0v93.07h0v.07c0,2.25,1.83,4.08,4.08,4.08h60.02Z"/>
    <path d="M176.37,280.78c2.25,0,4.08-1.83,4.08-4.08v-15.15c0-2.24-1.84-4.08-4.08-4.08h-40.79v-74c0-2.24-1.84-4.08-4.08-4.08h-15.15c-2.25,0-4.08,1.83-4.08,4.08v93.16h0v.07c0,2.25,1.83,4.08,4.08,4.08h60.02Z"/>
    <rect x="193.27" y="179.39" width="23.31" height="101.39" rx="4.08" ry="4.08"/>
</g>
</svg>
