<?xml version="1.0" encoding="UTF-8"?>
<svg id="Layer_1" xmlns="http://www.w3.org/2000/svg" version="1.1" viewBox="0 0 512 512">
  <!-- Generator: Adobe Illustrator 30.1.0, SVG Export Plug-In . SVG Version: 2.1.1 Build 136)  -->
  <defs>
    <style>
      .st0 {
        fill: none;
        stroke: #000;
        stroke-miterlimit: 10;
        stroke-width: 30px;
      }
    </style>
  </defs>
  <path class="st0" d="M469.45,225.59c0-95.59-95.83-173.36-213.63-173.36S42.19,130,42.19,225.59c0,85.7,76,157.47,178.66,171.04,6.96,1.5,16.43,4.59,18.82,10.54,2.15,5.4,1.41,13.86.69,19.32,0,0-2.51,15.07-3.05,18.29-.93,5.4-4.29,21.12,18.5,11.52,22.8-9.61,123.03-72.44,167.85-124.03h0c30.96-33.95,45.79-68.41,45.79-106.66v-.02Z"/>
  <g>
    <path d="M398.38,280.78c2.25,0,4.08-1.83,4.08-4.08v-15.15c0-2.24-1.84-4.08-4.08-4.08h-40.79v-15.73h40.79c2.25,0,4.08-1.83,4.08-4.08v-15.15c0-2.24-1.84-4.08-4.08-4.08h-40.79v-15.73h40.79c2.25,0,4.08-1.83,4.08-4.08v-15.15c0-2.24-1.84-4.08-4.08-4.08h-60.02c-2.25,0-4.08,1.83-4.08,4.08v.09h0v93.07h0v.07c0,2.25,1.83,4.08,4.08,4.08h60.02Z"/>
    <path d="M176.37,280.78c2.25,0,4.08-1.83,4.08-4.08v-15.15c0-2.24-1.84-4.08-4.08-4.08h-40.79v-74c0-2.24-1.84-4.08-4.08-4.08h-15.15c-2.25,0-4.08,1.83-4.08,4.08v93.16h0v.07c0,2.25,1.83,4.08,4.08,4.08h60.02Z"/>
    <rect x="193.27" y="179.39" width="23.31" height="101.39" rx="4.08" ry="4.08"/>
    <path d="M315.64,179.39h-15.15c-2.25,0-4.08,1.83-4.08,4.08v55.37l-42.66-57.61c-.1-.15-.21-.29-.33-.42l-.03-.03c-.08-.09-.16-.17-.25-.25-.03-.02-.05-.05-.08-.07-.07-.06-.15-.13-.22-.19-.04-.03-.07-.05-.11-.08-.07-.05-.14-.1-.22-.15-.04-.03-.08-.05-.12-.08-.07-.04-.15-.09-.23-.12-.04-.02-.09-.04-.13-.06-.08-.04-.16-.07-.24-.1-.04-.02-.09-.03-.13-.05-.08-.03-.16-.06-.25-.08-.05,0-.1-.03-.14-.04-.08-.02-.16-.04-.24-.05-.06,0-.12-.02-.17-.03-.07,0-.15-.02-.22-.03-.07,0-.14,0-.22,0h-15.21c-2.25,0-4.08,1.83-4.08,4.08v93.23c0,2.25,1.83,4.08,4.08,4.08h15.15c2.25,0,4.08-1.83,4.08-4.08v-55.36l42.71,57.68c.29.42.65.76,1.05,1.03.02.01.03.02.05.03.08.06.17.11.26.16.04.02.08.04.12.07.06.03.13.07.2.1s.13.06.2.09c.04.02.09.03.13.05.09.03.19.06.28.09.02,0,.04.01.06.02.34.09.7.14,1.07.14h15.07c2.25,0,4.08-1.83,4.08-4.08v-93.23c0-2.25-1.83-4.08-4.08-4.08v-.02Z"/>
  </g>
</svg>